<svg width="100" height="100" viewBox="0 0 100 100" fill="none" xmlns="http://www.w3.org/2000/svg">
<rect width="100" height="100" fill="white"/>
<path d="M30.128 75.512C28.848 75.512 27.8667 75.1707 27.184 74.488C26.5013 73.7627 26.16 72.7387 26.16 71.416V33.4C26.16 32.0773 26.5013 31.0747 27.184 30.392C27.8667 29.7093 28.848 29.368 30.128 29.368C31.408 29.368 32.3893 29.7093 33.072 30.392C33.7973 31.0747 34.16 32.0773 34.16 33.4V57.016H34.288L44.848 45.88C45.7013 45.0267 46.448 44.3653 47.088 43.896C47.728 43.4267 48.6027 43.192 49.712 43.192C50.8213 43.192 51.6533 43.4907 52.208 44.088C52.8053 44.6427 53.104 45.3253 53.104 46.136C53.104 46.9467 52.72 47.7573 51.952 48.568L40.816 60.344V57.016L53.04 70.2C53.808 71.0107 54.1493 71.8427 54.064 72.696C54.0213 73.5067 53.68 74.1893 53.04 74.744C52.4 75.256 51.5893 75.512 50.608 75.512C49.4133 75.512 48.4533 75.2773 47.728 74.808C47.0453 74.3387 46.2773 73.6347 45.424 72.696L34.288 61.048H34.16V71.416C34.16 74.1467 32.816 75.512 30.128 75.512Z" fill="black"/>
<path d="M69.216 80.096C67.936 80.096 66.9547 79.7547 66.272 79.072C65.5893 78.3893 65.248 77.3867 65.248 76.064V26.4C65.248 25.0347 65.5893 24.032 66.272 23.392C66.9547 22.7093 67.936 22.368 69.216 22.368C70.496 22.368 71.4773 22.7093 72.16 23.392C72.8853 24.032 73.248 25.0347 73.248 26.4V76.064C73.248 78.752 71.904 80.096 69.216 80.096Z" fill="#FF0000"/>
</svg>
